# xmcd
#
# Track frame offsets: 
#        150
#        17499
#        31153
#        47763
#        59700
#        73921
#        93663
#        110443
#        127709
#        144740
#        159337
#        174908
#        189910
#
# Disc length: 2733 seconds
#
# Revision: 2
# Processed by: cddbd v1.5.2PL0 Copyright (c) Steve Scherf et al.
# Submitted via: ExactAudioCopyFreeDBPlugin 1.0
#
DISCID=aa0aab0d
DTITLE=Midland - On the Rocks
DYEAR=2017
DGENRE=Country
TTITLE0=Lonely For You Only
TTITLE1=Make A Little
TTITLE2=Drinkin’ Problem
TTITLE3=At Least You Cried
TTITLE4=Burn Out
TTITLE5=Out Of Sight
TTITLE6=More Than A Fever
TTITLE7=Check Cashin’ Country
TTITLE8=Nothin’ New Under The Neon
TTITLE9=This Old Heart
TTITLE10=Altitude Adjustment
TTITLE11=Electric Rodeo
TTITLE12=Somewhere On The Wind
EXTD=
EXTT0=
EXTT1=
EXTT2=
EXTT3=
EXTT4=
EXTT5=
EXTT6=
EXTT7=
EXTT8=
EXTT9=
EXTT10=
EXTT11=
EXTT12=
PLAYORDER=
